<svg xmlns="http://www.w3.org/2000/svg" viewBox="0 0 1900 1000" width="1900" height="1000">
  <rect y="0.00" width="1900" height="76.92" fill="#B22234"/>
  <rect y="76.92" width="1900" height="76.92" fill="#FFFFFF"/>
  <rect y="153.85" width="1900" height="76.92" fill="#B22234"/>
  <rect y="230.77" width="1900" height="76.92" fill="#FFFFFF"/>
  <rect y="307.69" width="1900" height="76.92" fill="#B22234"/>
  <rect y="384.62" width="1900" height="76.92" fill="#FFFFFF"/>
  <rect y="461.54" width="1900" height="76.92" fill="#B22234"/>
  <rect y="538.46" width="1900" height="76.92" fill="#FFFFFF"/>
  <rect y="615.38" width="1900" height="76.92" fill="#B22234"/>
  <rect y="692.31" width="1900" height="76.92" fill="#FFFFFF"/>
  <rect y="769.23" width="1900" height="76.92" fill="#B22234"/>
  <rect y="846.15" width="1900" height="76.92" fill="#FFFFFF"/>
  <rect y="923.08" width="1900" height="76.92" fill="#B22234"/>
  <rect width="760.00" height="538.46" fill="#3C3B6E"/>
  <path d="M63.33,14.87 L70.07,35.60 L91.87,35.60 L74.23,48.41 L80.97,69.14 L63.33,56.33 L45.70,69.14 L52.44,48.41 L34.80,35.60 L56.60,35.60 Z" fill="#FFFFFF"/>
  <path d="M190.00,14.87 L196.74,35.60 L218.53,35.60 L200.90,48.41 L207.63,69.14 L190.00,56.33 L172.37,69.14 L179.10,48.41 L161.47,35.60 L183.26,35.60 Z" fill="#FFFFFF"/>
  <path d="M316.67,14.87 L323.40,35.60 L345.20,35.60 L327.56,48.41 L334.30,69.14 L316.67,56.33 L299.03,69.14 L305.77,48.41 L288.13,35.60 L309.93,35.60 Z" fill="#FFFFFF"/>
  <path d="M443.33,14.87 L450.07,35.60 L471.87,35.60 L454.23,48.41 L460.97,69.14 L443.33,56.33 L425.70,69.14 L432.44,48.41 L414.80,35.60 L436.60,35.60 Z" fill="#FFFFFF"/>
  <path d="M570.00,14.87 L576.74,35.60 L598.53,35.60 L580.90,48.41 L587.63,69.14 L570.00,56.33 L552.37,69.14 L559.10,48.41 L541.47,35.60 L563.26,35.60 Z" fill="#FFFFFF"/>
  <path d="M696.67,14.87 L703.40,35.60 L725.20,35.60 L707.56,48.41 L714.30,69.14 L696.67,56.33 L679.03,69.14 L685.77,48.41 L668.13,35.60 L689.93,35.60 Z" fill="#FFFFFF"/>
  <path d="M126.67,104.62 L133.40,125.34 L155.20,125.34 L137.56,138.16 L144.30,158.89 L126.67,146.07 L109.03,158.89 L115.77,138.16 L98.13,125.34 L119.93,125.34 Z" fill="#FFFFFF"/>
  <path d="M253.33,104.62 L260.07,125.34 L281.87,125.34 L264.23,138.16 L270.97,158.89 L253.33,146.07 L235.70,158.89 L242.44,138.16 L224.80,125.34 L246.60,125.34 Z" fill="#FFFFFF"/>
  <path d="M380.00,104.62 L386.74,125.34 L408.53,125.34 L390.90,138.16 L397.63,158.89 L380.00,146.07 L362.37,158.89 L369.10,138.16 L351.47,125.34 L373.26,125.34 Z" fill="#FFFFFF"/>
  <path d="M506.67,104.62 L513.40,125.34 L535.20,125.34 L517.56,138.16 L524.30,158.89 L506.67,146.07 L489.03,158.89 L495.77,138.16 L478.13,125.34 L499.93,125.34 Z" fill="#FFFFFF"/>
  <path d="M633.33,104.62 L640.07,125.34 L661.87,125.34 L644.23,138.16 L650.97,158.89 L633.33,146.07 L615.70,158.89 L622.44,138.16 L604.80,125.34 L626.60,125.34 Z" fill="#FFFFFF"/>
  <path d="M63.33,194.36 L70.07,215.09 L91.87,215.09 L74.23,227.90 L80.97,248.63 L63.33,235.82 L45.70,248.63 L52.44,227.90 L34.80,215.09 L56.60,215.09 Z" fill="#FFFFFF"/>
  <path d="M190.00,194.36 L196.74,215.09 L218.53,215.09 L200.90,227.90 L207.63,248.63 L190.00,235.82 L172.37,248.63 L179.10,227.90 L161.47,215.09 L183.26,215.09 Z" fill="#FFFFFF"/>
  <path d="M316.67,194.36 L323.40,215.09 L345.20,215.09 L327.56,227.90 L334.30,248.63 L316.67,235.82 L299.03,248.63 L305.77,227.90 L288.13,215.09 L309.93,215.09 Z" fill="#FFFFFF"/>
  <path d="M443.33,194.36 L450.07,215.09 L471.87,215.09 L454.23,227.90 L460.97,248.63 L443.33,235.82 L425.70,248.63 L432.44,227.90 L414.80,215.09 L436.60,215.09 Z" fill="#FFFFFF"/>
  <path d="M570.00,194.36 L576.74,215.09 L598.53,215.09 L580.90,227.90 L587.63,248.63 L570.00,235.82 L552.37,248.63 L559.10,227.90 L541.47,215.09 L563.26,215.09 Z" fill="#FFFFFF"/>
  <path d="M696.67,194.36 L703.40,215.09 L725.20,215.09 L707.56,227.90 L714.30,248.63 L696.67,235.82 L679.03,248.63 L685.77,227.90 L668.13,215.09 L689.93,215.09 Z" fill="#FFFFFF"/>
  <path d="M126.67,284.10 L133.40,304.83 L155.20,304.83 L137.56,317.64 L144.30,338.37 L126.67,325.56 L109.03,338.37 L115.77,317.64 L98.13,304.83 L119.93,304.83 Z" fill="#FFFFFF"/>
  <path d="M253.33,284.10 L260.07,304.83 L281.87,304.83 L264.23,317.64 L270.97,338.37 L253.33,325.56 L235.70,338.37 L242.44,317.64 L224.80,304.83 L246.60,304.83 Z" fill="#FFFFFF"/>
  <path d="M380.00,284.10 L386.74,304.83 L408.53,304.83 L390.90,317.64 L397.63,338.37 L380.00,325.56 L362.37,338.37 L369.10,317.64 L351.47,304.83 L373.26,304.83 Z" fill="#FFFFFF"/>
  <path d="M506.67,284.10 L513.40,304.83 L535.20,304.83 L517.56,317.64 L524.30,338.37 L506.67,325.56 L489.03,338.37 L495.77,317.64 L478.13,304.83 L499.93,304.83 Z" fill="#FFFFFF"/>
  <path d="M633.33,284.10 L640.07,304.83 L661.87,304.83 L644.23,317.64 L650.97,338.37 L633.33,325.56 L615.70,338.37 L622.44,317.64 L604.80,304.83 L626.60,304.83 Z" fill="#FFFFFF"/>
  <path d="M63.33,373.85 L70.07,394.58 L91.87,394.58 L74.23,407.39 L80.97,428.12 L63.33,415.31 L45.70,428.12 L52.44,407.39 L34.80,394.58 L56.60,394.58 Z" fill="#FFFFFF"/>
  <path d="M190.00,373.85 L196.74,394.58 L218.53,394.58 L200.90,407.39 L207.63,428.12 L190.00,415.31 L172.37,428.12 L179.10,407.39 L161.47,394.58 L183.26,394.58 Z" fill="#FFFFFF"/>
  <path d="M316.67,373.85 L323.40,394.58 L345.20,394.58 L327.56,407.39 L334.30,428.12 L316.67,415.31 L299.03,428.12 L305.77,407.39 L288.13,394.58 L309.93,394.58 Z" fill="#FFFFFF"/>
  <path d="M443.33,373.85 L450.07,394.58 L471.87,394.58 L454.23,407.39 L460.97,428.12 L443.33,415.31 L425.70,428.12 L432.44,407.39 L414.80,394.58 L436.60,394.58 Z" fill="#FFFFFF"/>
  <path d="M570.00,373.85 L576.74,394.58 L598.53,394.58 L580.90,407.39 L587.63,428.12 L570.00,415.31 L552.37,428.12 L559.10,407.39 L541.47,394.58 L563.26,394.58 Z" fill="#FFFFFF"/>
  <path d="M696.67,373.85 L703.40,394.58 L725.20,394.58 L707.56,407.39 L714.30,428.12 L696.67,415.31 L679.03,428.12 L685.77,407.39 L668.13,394.58 L689.93,394.58 Z" fill="#FFFFFF"/>
  <path d="M126.67,463.59 L133.40,484.32 L155.20,484.32 L137.56,497.13 L144.30,517.86 L126.67,505.05 L109.03,517.86 L115.77,497.13 L98.13,484.32 L119.93,484.32 Z" fill="#FFFFFF"/>
  <path d="M253.33,463.59 L260.07,484.32 L281.87,484.32 L264.23,497.13 L270.97,517.86 L253.33,505.05 L235.70,517.86 L242.44,497.13 L224.80,484.32 L246.60,484.32 Z" fill="#FFFFFF"/>
  <path d="M380.00,463.59 L386.74,484.32 L408.53,484.32 L390.90,497.13 L397.63,517.86 L380.00,505.05 L362.37,517.86 L369.10,497.13 L351.47,484.32 L373.26,484.32 Z" fill="#FFFFFF"/>
  <path d="M506.67,463.59 L513.40,484.32 L535.20,484.32 L517.56,497.13 L524.30,517.86 L506.67,505.05 L489.03,517.86 L495.77,497.13 L478.13,484.32 L499.93,484.32 Z" fill="#FFFFFF"/>
  <path d="M633.33,463.59 L640.07,484.32 L661.87,484.32 L644.23,497.13 L650.97,517.86 L633.33,505.05 L615.70,517.86 L622.44,497.13 L604.80,484.32 L626.60,484.32 Z" fill="#FFFFFF"/>
  <rect x="1" y="1" width="1898" height="998" fill="none" stroke="#3a2f1e" stroke-opacity="0.4" stroke-width="2"/>
</svg>
