<svg xmlns="http://www.w3.org/2000/svg" viewBox="0 0 300 340" role="img" aria-label="Locator map of the Electorate of Hesse in Central Europe, with the Trendelburg and Deisel parish district marked in northern Hesse.">
  <defs><clipPath id="ckm-de"><rect x="0" y="0" width="300" height="340" rx="13"/></clipPath></defs>
  <g clip-path="url(#ckm-de)">
    <rect x="0" y="0" width="300" height="340" fill="#f4ecd6"/>
    <path d="M130.7,416.4L132.2,433.7L124.8,454.3L117.4,448.9L112.6,428.5L115.5,423.3ZM93.8,281.8L82.7,284.9L81.6,289.7L63,315.6L63.5,323.7L70.3,315.6L76.8,316L82,330L77.7,336.1L84.7,344.9L74.3,352.8L82.2,364L79.6,374.6L95,381.6L91.4,390.3L90.3,390.8L89.1,391.2L71.5,406.6L64.1,409.2L50,405L43.2,399.1L34.6,400.7L23.2,395L7.6,406L3.4,413.5L6.6,426.5L-16.7,428.6L-23.2,424.6L-28.7,422.1L-43.2,415.4L-44.5,419.6L-57.8,419.6L-62.9,415.9L-86.3,409.3L-92.5,400.1L-86.4,395.8L-77.4,335.3L-79.7,319L-92.4,313.1L-105,285.4L-134.2,274.6L-142.3,275.1L-149.6,268.7L-142.7,264.8L-150.4,253.8L-120.9,244.7L-110.2,253.8L-105.4,250.5L-84.2,250.4L-93.7,219.2L-81.9,219.3L-79.5,228.2L-60.2,231L-48.7,226.4L-53.3,218.6L-32.4,209.6L-25.4,201.7L-25.7,186.5L-19.1,178.7L-7,175.3L-0.8,187.4L4.6,185.3L15.6,199.4L25.7,201.9L24.9,210L39.3,205.3L39.4,216L52,224.4L57.6,223.7L68.6,226.2L76.3,235.1L90.5,235.4L104,240.8L98.2,250.9L93.1,267.9ZM-80.3,330.6L-80.3,330.6L-80.3,330.6ZM837.3,1614.8L837.3,1614.8L837.3,1614.8ZM1047.5,1788.2L1038.9,1786.8L1037.9,1779L1044.8,1779ZM-1261,1065.7L-1261,1065.7L-1261,1065.7ZM-1270.9,1030.1L-1270.9,1030.1L-1270.9,1030.1ZM-1276.1,1034.7L-1276.1,1034.7L-1276.1,1034.7ZM-1269,1037.1L-1269,1037.1L-1269,1037.1ZM-1138.1,1309.6L-1129.7,1299.9L-1125.7,1284.6L-1132.8,1275.4L-1134.8,1256.3L-1129,1249.5L-1122.8,1241.1L-1104.1,1248.2L-1082,1265.2L-1079.4,1275.3L-1086.1,1282.4L-1100.1,1308.9L-1105.4,1312.5L-1121.3,1309.1L-1128.4,1313.7ZM26.7,166.2L37.2,162.8L58.4,174.4L54.7,183.3L61.6,186.2L69,199.7L64.1,205.8L56.7,212L57.6,223.7L52,224.4L39.4,216L39.3,205.3L24.9,210L25.7,201.9L15.6,199.4L4.6,185.3L-0.8,187.4L-7,175.3L9.3,166.4L20.2,171.8ZM61.6,186.2L54.7,183.3L58.4,174.4L37.2,162.8L26.7,166.2L11.3,161.2L25.8,159L21.2,152.7L31.8,136.6L35.6,120.3L63,100.6L78,99.4L85.5,104.7L82.3,134.3L76.5,149.4L60.8,154.2L65.6,162.9L59.7,178.9ZM26.7,166.2L20.2,171.8L9.3,166.4ZM68.4,97.1L68.4,97.1L68.4,97.1ZM60.4,98.9L60.4,98.9L60.4,98.9ZM44.2,103.9L44.2,103.9L44.2,103.9ZM48.5,101.3L48.5,101.3L48.5,101.3ZM39.8,111.7L39.8,111.7L39.8,111.7ZM21.2,154.9L21.2,154.9L21.2,154.9ZM76.3,94.8L76.3,94.8L76.3,94.8ZM-1407,1113.5L-1407,1113.5L-1407,1113.5ZM-1302.8,1003.9L-1302.8,1003.9L-1302.8,1003.9ZM-1308.6,1001.2L-1308.6,1001.2L-1308.6,1001.2ZM64.1,205.8L71.5,215.7L68.6,226.2L57.6,223.7L56.7,212ZM131.5,283.9L131.6,291.3L132.7,297.5L149.9,303L139.7,317.5L131.6,319.1L126.3,314.3L120.3,332.7L108.7,315.1L97.2,330.1L82,330L76.8,316L70.3,315.6L63.5,323.7L63,315.6L81.6,289.7L82.7,284.9L93.8,281.8L109.6,281.9L113.6,276.7ZM131.6,291.3L131.5,283.9L136,282.3L147.2,290L149.5,283.3L160.4,287.5L184.7,278.1L200.7,285.2L196.7,265.1L213.7,254.3L216.5,247L221.1,251.9L233.8,252L239.4,240.4L260.9,247.3L269.2,246L278.6,252L276.8,258.4L282.5,269.6L280.8,278.5L270.6,277.3L268.7,298.9L261.6,303.1L258.9,308.4L239.9,309.9L230.1,315.9L214.2,313L188.3,307.7L183.9,296.7L163.4,301L161.3,305L149.9,303L132.7,297.5ZM315.8,224.4L302.5,232.2L294.5,243.3L283.3,244.2L278.6,252L269.2,246L260.9,247.3L239.4,240.4L233.8,252L221.1,251.9L216.5,247L193,226L190.7,212.7L184.7,206.4L189.5,198.7L227.5,181.5L236.2,182.8L239.8,177.9L247,184.3L268,191.7L263.9,196.3L273.2,206.4L277.1,196.3L296.9,210.4L310.5,213.2ZM410.2,162L420.1,183.2L417.6,196.8L412.4,197.8L391.4,223.6L394.5,239.3L389.1,237.8L371.3,227.5L351.1,228.1L334.1,233.8L327.9,221.8L322.1,227.8L315.8,224.4L310.5,213.2L296.9,210.4L277.1,196.3L273.2,206.4L263.9,196.3L268,191.7L247,184.3L239.8,177.9L236.2,182.8L240.3,170.4L232,151.9L235,143.9L232.4,129.5L222.7,118.1L228.4,104.7L225.3,89.8L224.4,85.1L224.3,82.4L263.4,70.9L270.8,62L284.7,56L305.7,52.3L312.5,66.2L318.7,68.9L331.1,65.2L393.6,68.7L405.6,74L407.9,82.8L415.9,113.2L415,125L406.4,129.9L402.2,138.3L411.2,145.2ZM191.8,19.3L184.8,30.5L177.9,54.5L173.7,40.2L166.5,39.6L160.3,21.6L170.2,13.7L177,22.4L177.9,12.9L192,9.4ZM135.8,52.7L114.7,50L113.6,32.1L104,25.8L104.6,-9.9L114.7,-5.9L126.2,-24.5L116.7,-14.2L107,-18.8L113.7,-28.2L132.1,-32.6L140.2,-45.4L151.5,-51.1L151.4,-33L146.8,-24.1L146.6,-10.4L157.7,-6.9L157.9,1.2L147.3,4.2L144.6,16.5L132.9,29.5L130.2,45.3ZM153.7,25.5L156.5,42.1L140.7,41L138.2,28.7ZM167.9,50.4L175.4,53.3L169.8,59.4L161.5,54.5ZM155.5,55.2L155.5,55.2L155.5,55.2ZM191.4,47.8L191.4,47.8L191.4,47.8ZM193.8,25.9L193.8,25.9L193.8,25.9ZM150.6,51.9L150.6,51.9L150.6,51.9ZM142.2,50.6L142.2,50.6L142.2,50.6ZM153,19.4L153,19.4L153,19.4ZM161.8,-33.3L161.8,-33.3L161.8,-33.3ZM241.6,45.9L233.7,43.1L235.3,36.4Z" fill="#e4d7b4" stroke="#cabb8e" stroke-width="2.2" stroke-linejoin="round"/>
    <path d="M131.5,283.9L113.6,276.7L109.6,281.9L93.8,281.8L93.1,267.9L98.2,250.9L104,240.8L90.5,235.4L76.3,235.1L68.6,226.2L71.5,215.7L64.1,205.8L69,199.7L61.6,186.2L59.7,178.9L65.6,162.9L60.8,154.2L76.5,149.4L82.3,134.3L85.5,104.7L87.2,91.5L101.5,91.2L111.2,97L113.7,84.9L120.7,83.2L114.2,67.3L120.4,62.5L114.7,50L135.8,52.7L143.8,64.2L155.4,70.1L161,67.9L159.1,80.9L168.7,82.6L182.8,75.1L192,64.9L214.7,75.6L217.5,85.7L225.3,89.8L228.4,104.7L222.7,118.1L232.4,129.5L235,143.9L232,151.9L240.3,170.4L236.2,182.8L227.5,181.5L189.5,198.7L184.7,206.4L190.7,212.7L193,226L216.5,247L213.7,254.3L196.7,265.1L200.7,285.2L184.7,278.1L160.4,287.5L149.5,283.3L147.2,290L136,282.3ZM214.4,67.8L207.6,72.5L203.9,62.3L208.7,57ZM224.3,82.4L224.4,85.1L224.3,82.4ZM166.4,66.6L166.4,66.6L166.4,66.6ZM107.5,54L107.5,54L107.5,54ZM113,56.6L113,56.6L113,56.6Z" fill="#fcf7e7" stroke="#8a6420" stroke-width="4" stroke-linejoin="round"/>
    <path d="M126.7,156.5L133.4,161L140.6,167L145.3,175.8L142.9,186.5L136.6,195.2L135,206.4L127.1,211L120.4,207.6L115.2,197.1L118.4,182.8L117.6,170.8L121.6,161L126.7,156.5Z" fill="#d8b366" fill-opacity="0.92" stroke="#8a6420" stroke-width="2.6" stroke-linejoin="round"/>
  </g>
  <rect x="1.5" y="1.5" width="297" height="337" rx="12" fill="none" stroke="#d8c8a8" stroke-width="3"/>
  <g transform="translate(129.5,159.8) scale(2.36)">
    <ellipse cx="0" cy="1.4" rx="6" ry="2" fill="#000" fill-opacity="0.28"/>
    <g transform="translate(-12,-22)">
      <path d="M12 2C8.13 2 5 5.13 5 9c0 5.25 7 13 7 13s7-7.75 7-13c0-3.87-3.13-7-7-7z" fill="#4a3320" stroke="#fdf7e6" stroke-width="2" stroke-linejoin="round"/>
      <circle cx="12" cy="9" r="3" fill="#fdf7e6"/>
    </g>
  </g>
</svg>
