<svg xmlns="http://www.w3.org/2000/svg" viewBox="2.5 -3 970.6 625.2" role="img" aria-label="Locator map of the contiguous United States, with the state of Missouri highlighted and the city of St. Louis marked.">
  <defs><clipPath id="ckm-us"><rect x="2.5" y="-3" width="970.6" height="625.2" rx="22"/></clipPath></defs>
  <g clip-path="url(#ckm-us)">
    <rect x="2.5" y="-3" width="970.6" height="625.2" fill="#f4ecd6"/>
    <path d="M648,492.4L648,492.4L648,492.4ZM780.1,466.1L782.8,475.7L787,486.3L794.9,499.6L806.1,513.6L806.6,521.9L811.5,529.2L820,544.3L822.8,554.1L823.8,574.5L821.8,573.7L822.4,582.7L819.7,586.1L806.9,589.7L800.6,577.8L793.1,574.2L791.9,575.4L785.5,563.3L780.2,559.3L781.3,555.4L777.5,556.8L766.5,542.9L771.2,533.2L764.7,529.8L767.4,534.3L764.7,537.1L761.9,533.4L763.6,517.1L761.9,510.2L758.9,505.1L755,504.9L746.1,498.3L745.3,494.9L740.3,490.6L732.2,486.7L727.4,487.4L726.4,492.2L722.7,492.3L716.3,497.4L711.8,498L713.7,500.8L707.4,499.8L705.7,493.6L695.8,488.4L688.8,486.2L680.7,485.8L663.7,490.1L655.9,487.8L653.4,481.7L651.6,490.2L646.5,489.5L644.4,490.8L636.2,489.7L624.8,495.4L619.2,498.9L623.8,502.3L625.7,497.7L628.2,501.3L627.3,507.2L622.8,507.8L626.3,513.4L632.4,513.8L634.9,517.8L634.2,521.8L623.8,515.7L619.8,515.3L612.6,521.1L608.1,515.4L601,522.8L597.9,519.8L590.3,517.5L584.2,507.9L579.1,508.6L578.8,505.8L574.5,508.2L574.8,511L570.6,513.1L553.6,508.2L540.6,510.4L534.8,511.5L522.4,517.4L526.7,513.3L522.1,514.3L523.7,509.2L518.4,510.5L519.9,519.4L523.1,518.8L510.3,529.5L492,539.2L480.2,548.4L475,555.4L470.5,566.2L470.2,574.1L473.5,587.2L469.7,576L469.6,568.9L471.7,560.1L480.4,546.2L489.2,541.4L484.3,542L477.4,546.5L474.1,553L468.7,551.8L472.7,555.8L469.4,564.3L467.9,575.9L471.5,591.7L474.4,595.1L466.7,596.6L464.1,593.5L451.8,592.1L440.1,585.1L434.3,583.6L431.4,574.1L427.9,569.9L427.6,559.5L419.9,552.1L419,548L412,540.8L410.2,533.9L405.9,526.5L405.1,521.7L398.1,513.5L394.2,511.5L390.3,505.7L377.8,504.7L366.4,505.5L361,517.2L356.8,521.6L353.5,521.4L348.3,517L337.2,510.9L330,503.6L327.7,497.8L328.1,492L323,479.9L315.8,475.4L306.2,462.7L301.7,459.9L299,453.5L296.3,452.1L264.2,448.2L262.9,458.4L246.8,456.3L208.2,450.5L171.7,429.5L142.3,411.7L145.1,407L99.5,401.7L97.9,398.1L98.7,387.7L96.5,382.3L86.4,369.8L82.1,369.3L81.7,362.5L76.4,361.8L69.7,356.7L65,349.3L54.9,345.2L48.8,344.3L46.5,340.5L49.8,328.1L45.9,324.6L47.3,321.2L41.6,313.3L37.2,299.7L34.8,296.1L36.3,289L39.7,285.9L38.3,281.4L35.1,281L31.4,274.3L31.6,266.5L33.3,260.8L34.7,265.7L38.5,270.1L38.6,265L35.8,257.2L33.2,259.9L29.4,254.6L26.2,253.5L28.3,250.3L27.1,243.1L24.4,239.5L20.1,229L21.4,219.4L23.6,215.7L24,209.2L18.5,197.2L18.9,193.1L26.6,183.8L31.3,172.9L32.6,160L31.1,156.7L33.6,146.5L32.8,139.9L42.7,125.8L45.4,120.7L57.2,92.5L61.1,81.4L62.2,75L65,70.6L71,70.2L65.9,69.2L64.1,65.2L65.9,57.2L70.7,53.9L66.9,51L67.6,34.1L65.7,30.2L66.5,23.5L69.7,20.2L76.9,27.1L90.2,33L94.6,32.9L96.6,39L92.4,52.4L96.1,51.9L98,41.7L101.7,37.6L100.9,27L102.4,20.9L99.4,19.2L100,14.4L140.1,25.4L183.6,35.9L198.1,39L232.9,46.1L265.4,51.9L302.8,57.5L340.4,62.1L376.9,65.7L404.4,67.8L444.9,69.8L479.5,70.7L510.8,70.8L510.7,62.2L515.6,64.1L520.2,77.3L530.7,78.8L531.5,81.3L540.3,78.2L551.1,82.2L553.4,87.3L554.9,84.2L563.4,87.3L565.8,90.7L576.7,85.8L578.1,88.9L587.6,88L596.2,90.7L582,97.5L572.7,105.7L569.9,109.4L558.9,119.4L560.2,121.1L568,119.6L576.2,115.1L579.7,116.1L577,122.8L580.2,120.5L585.3,123.1L593.9,117.3L600.5,115.8L618.6,100.5L624.4,99.7L615.4,111.8L615.6,116.6L618.6,112.5L628.3,114.3L633.1,120.8L643.6,121.4L651.8,115.2L662,114L670,111L669.8,117.6L676.5,118.3L683.4,114.8L684.4,121.5L690.2,126.2L693.2,123.6L694,127.6L685.2,127.2L681.2,128.8L676.5,126.6L674.2,131L671.2,128.3L662.9,127.3L660.9,130.3L652.6,131.3L650.3,135.5L645.2,139.2L647.6,134.3L643.6,134.5L643,137.7L637.9,139.6L632.4,153L629,156.6L626.2,165.6L628.1,166.1L632.6,158.9L635.7,157.1L637.9,150.9L641.6,147.6L635.5,165.1L635.4,173.6L632.5,180.8L633.4,185.3L630.8,195.3L634.1,205.7L634.2,212.4L634,216.8L640.3,229.8L647.2,230.6L651.9,227.6L655.1,224.2L658.6,215.5L660,204.7L658.9,198L652.4,184.3L653.8,180.1L651.9,174.9L655.2,168L654.9,159.7L657.1,154.9L661.1,153.5L663.6,147.8L663.9,155.9L666.1,157.6L667.8,153.2L667.3,145.5L674.2,141.9L670.5,138.3L675.4,132.7L684.6,135.1L686.6,137.8L696.7,139.9L701.3,147L698.8,148.9L702.2,153.9L702.4,162.5L699.2,165.5L699.2,169.4L695.4,171.5L694.1,177.1L699,180.2L704.6,170.6L709.9,167.7L715.2,172.4L718.9,185.8L721.5,191.2L720.9,199.8L716.3,199.4L715.1,206.5L708.3,221.7L717.6,225.5L719,223.6L725.6,227.4L733,223.3L737.5,223.2L748.5,213L756.1,209L767.5,200.3L776.4,192.1L780.3,186.1L776.9,182L774.8,176L783.8,171.7L795.8,170.3L799.8,171.9L809,169.2L816.6,161.8L819.3,161.1L816.9,154.4L819.3,152.5L814.7,150.3L815,146.4L820.5,141.3L828.6,127.9L832.3,124.4L857.6,117.8L886.1,110.5L886.7,105.2L890.9,102.4L894.8,103.1L894.3,99.3L900,86.1L898.2,82.6L899.9,73.8L899.1,67.5L905.9,47.6L908.8,47.5L912.5,52.3L922.6,45.8L929.7,49.8L938.7,79.9L944.6,79.9L946.1,87L949.5,89.7L952,88.1L957.1,94.8L952.8,98.6L950.2,105.6L946.8,104.3L943.8,110.3L938.9,113.7L937.3,109.7L935.7,117.6L931.9,114.3L931,110.1L929.3,120.5L930.2,122.9L918.1,130.9L912.8,138.3L910.2,150.1L909.5,154.8L914.3,158.5L909.5,165.8L917,171.2L921.7,177.7L928.8,175.1L931,176.8L920,183.3L917.9,179.4L915.4,185.3L912.8,186.4L909.1,188.3L910.5,182.8L909.8,182.1L906.7,181.2L907.6,190.7L901.7,193.5L893.5,197L884.7,198.4L881.9,202.6L874.1,208.3L877.1,208.5L890.9,204.2L894.7,199.6L899.5,201.8L885.7,213L871.7,219.3L869.2,216.4L868.9,217.2L866.6,221.4L871.4,222.4L873.2,237.3L869.9,247.5L865.4,257.2L862.6,259L862.9,253.8L858.6,254.3L851.7,249.8L849.4,246.4L849.2,245.8L849.7,244.4L849.3,249.3L852.8,252.5L854.8,258L861.3,262.7L863.7,270.3L862.5,280.5L858.4,288.2L856.6,301.3L852.6,300.7L852.9,292.1L855.5,283.8L851.6,285.3L847.7,275.6L845.5,279.1L841.4,274.1L841.8,271.3L846.4,271.3L839,266.3L839.3,259.3L841.6,251.7L836.8,254L838,262.7L836.2,268.8L840.3,279L843.8,284.2L834.6,281.5L829.9,277.6L827,280.2L827.1,273.8L824.5,278.6L829.6,278.7L831.9,282.6L838.2,282.9L845.9,287.3L848,300.4L845.1,298.9L849.2,305.5L847.3,308.7L840.1,304.8L846.3,310.5L854.9,308.3L858.8,315.9L855.9,317.5L859.3,323L847.4,332.7L856,329.6L863.3,329.4L865.7,334.5L859.7,344.3L851.6,344.7L843.1,343.4L854.2,347.1L850.5,355.8L854.8,352.9L859.2,353.5L862.9,350L855.6,361.2L851.4,360.8L843.8,364.5L838,370.5L834.5,376.7L833.4,384.1L829.2,383.5L822.8,386.1L816.3,392.2L813.5,398.8L813.6,403.6L800.6,419L792.1,423.7L793,426.9L786.1,434.6L782.6,442.3L781.3,454.4L778.3,460.2ZM814.6,594.5L814.6,594.5L814.6,594.5ZM812.7,596L812.7,596L812.7,596ZM807.4,599L807.4,599L807.4,599ZM793.7,604.2L800.5,597.7L805.1,600.1ZM789.6,605.4L789.6,605.4L789.6,605.4ZM786.4,605.5L786.4,605.5L786.4,605.5ZM777.4,558.3L777.4,558.3L777.4,558.3ZM770.3,606.2L770.3,606.2L770.3,606.2ZM720.4,495.2L720.4,495.2L720.4,495.2ZM939.8,114.8L939.8,114.8L939.8,114.8ZM938,116.1L938,116.1L938,116.1ZM936.3,112.2L936.3,112.2L936.3,112.2ZM932.2,116L932.2,116L932.2,116ZM933.5,124.7L933.5,124.7L933.5,124.7ZM931.4,119.2L931.4,119.2L931.4,119.2ZM930.1,116.3L930.1,116.3L930.1,116.3ZM927.7,186.8L927.7,186.8L927.7,186.8ZM918.3,188.3L921.3,184.4L924.6,186.7ZM864.3,329.1L864.3,329.1L864.3,329.1ZM863.3,349.7L863.3,349.7L863.3,349.7ZM77.2,374.3L77.2,374.3L77.2,374.3ZM74.7,384.2L74.7,384.2L74.7,384.2ZM65.2,358.4L65.2,358.4L65.2,358.4ZM58.3,374.3L58.3,374.3L58.3,374.3ZM56.6,355.1L62.6,358.5L56.9,357.4ZM50.3,355.2L50.3,355.2L50.3,355.2ZM46.8,353.4L46.8,353.4L46.8,353.4ZM848.9,285.2L849.9,285L848.9,285.2ZM847.3,281.5L847.3,281.5L847.3,281.5ZM677.1,130.8L677.1,130.8L677.1,130.8ZM663.5,133.2L663.5,133.2L663.5,133.2ZM662.4,138.6L662.4,138.6L662.4,138.6ZM660.9,135.6L660.9,135.6L660.9,135.6ZM658.8,142.5L658.8,142.5L658.8,142.5ZM656.6,149.6L656.6,149.6L656.6,149.6ZM655.4,152.7L655.4,152.7L655.4,152.7ZM645.5,139.9L645.5,139.9L645.5,139.9ZM601.4,92.4L610.1,85.8L610.1,88.7L603.5,93.3ZM644.5,493.1L644.5,493.1L644.5,493.1ZM639.3,492.9L639.3,492.9L639.3,492.9ZM635.2,493.9L635.2,493.9L635.2,493.9ZM631.8,493.6L631.8,493.6L631.8,493.6ZM899.3,195.7L899.3,195.7L899.3,195.7ZM896.7,198L896.7,198L896.7,198ZM815.5,153.8L815.5,153.8L815.5,153.8ZM814.2,153.7L814.2,153.7L814.2,153.7ZM720.6,223L720.6,223L720.6,223ZM718.7,222.3L718.7,222.3L718.7,222.3ZM93.2,50.9L93.2,50.9L93.2,50.9ZM98.7,24.6L98.7,24.6L98.7,24.6ZM98.9,20.3L98.9,20.3L98.9,20.3ZM97.7,23.5L97.7,23.5L97.7,23.5ZM95,31L98.5,27.7L96.8,33.1ZM95.5,17.9L95.5,17.9L95.5,17.9ZM93.6,19.6L93.6,19.6L93.6,19.6ZM95.2,13L95.2,13L95.2,13ZM91,21.2L98.1,21.8L95.6,26.6ZM91.1,19.1L91.1,19.1L91.1,19.1ZM641.9,146.3L641.9,146.3L641.9,146.3ZM635.6,150.4L635.6,150.4L635.6,150.4ZM584,113.3L584,113.3L584,113.3ZM583.2,116.2L583.2,116.2L583.2,116.2ZM581.2,115.2L581.2,115.2L581.2,115.2ZM579.6,117.2L579.6,117.2L579.6,117.2ZM579.8,114.4L579.8,114.4L579.8,114.4ZM579.1,113L579.1,113L579.1,113ZM579.2,118.5L579.2,118.5L579.2,118.5ZM576,114.1L576,114.1L576,114.1ZM637.5,497.4L637.5,497.4L637.5,497.4ZM628.5,497.9L628.5,497.9L628.5,497.9ZM623.7,510.2L623.7,510.2L623.7,510.2ZM609.5,520.8L609.5,520.8L609.5,520.8ZM606,521.3L606,521.3L606,521.3ZM602.2,522.4L602.2,522.4L602.2,522.4ZM576.6,511.5L582.6,512L580,513.9ZM908.4,188.4L908.4,188.4L908.4,188.4ZM906.7,196L906.7,196L906.7,196Z" fill="#fcf7e7" stroke="#8a6420" stroke-width="4" stroke-linejoin="round"/>
    <path d="M502,261.9L521.4,262L544.8,261.3L570.9,259.6L576.5,264.7L575.5,272.6L578.1,279.5L589.7,289.9L591.3,297.3L594.9,296.1L601,298.4L597.6,309.3L597.6,313.2L606.1,320.6L607.1,319.7L614.1,326.4L613.8,333.4L618.6,340L621.2,339.9L620.2,349.5L616.9,351.3L615.6,351.5L614.7,351.5L612.1,357.7L614.2,360.1L611.9,363.1L600.2,364L605.2,357.3L603.6,352.2L549.9,354.7L523,355.3L522.8,343.8L522.3,295.2L518.5,293.2L513.5,285.8L516.5,277.7L509.9,275.2L504.7,268.1Z" fill="#d8b366" fill-opacity="0.92" stroke="#8a6420" stroke-width="3" stroke-linejoin="round"/>
  </g>
  <rect x="5.0" y="-0.5" width="965.6" height="620.2" rx="20" fill="none" stroke="#d8c8a8" stroke-width="5"/>
  <g transform="translate(599.8,303.6) scale(4.33)">
    <ellipse cx="0" cy="1.4" rx="6" ry="2" fill="#000" fill-opacity="0.28"/>
    <g transform="translate(-12,-22)">
      <path d="M12 2C8.13 2 5 5.13 5 9c0 5.25 7 13 7 13s7-7.75 7-13c0-3.87-3.13-7-7-7z" fill="#4a3320" stroke="#fdf7e6" stroke-width="2" stroke-linejoin="round"/>
      <circle cx="12" cy="9" r="3" fill="#fdf7e6"/>
    </g>
  </g>
</svg>
